<svg width="294" height="210" viewBox="0 0 294 210" fill="none" xmlns="http://www.w3.org/2000/svg">
<g clip-path="url(#clip0_1_2)">
<path d="M45.36 98.89C37.62 98.89 30.96 97.495 25.38 94.705C19.89 91.825 15.66 87.775 12.69 82.555C9.81 77.245 8.37 70.99 8.37 63.79V2.49999H26.19V64.33C26.19 70.09 27.81 74.635 31.05 77.965C34.38 81.295 39.15 82.96 45.36 82.96C51.57 82.96 56.295 81.295 59.535 77.965C62.865 74.635 64.53 70.09 64.53 64.33V2.49999H82.35V63.79C82.35 70.99 80.865 77.245 77.895 82.555C75.015 87.775 70.785 91.825 65.205 94.705C59.715 97.495 53.1 98.89 45.36 98.89ZM93.6731 97L121.348 49.345L93.9431 2.49999H114.193L132.958 36.655H135.388L154.153 2.49999H174.403L146.998 49.345L174.673 97H154.423L135.388 62.035H132.958L113.923 97H93.6731ZM243.585 97C238.005 97 233.1 96.01 228.87 94.03C224.73 91.96 221.49 89.035 219.15 85.255C216.81 81.385 215.64 76.795 215.64 71.485C215.64 67.615 216.315 64.24 217.665 61.36C219.105 58.48 221.04 56.095 223.47 54.205C225.9 52.315 228.6 50.92 231.57 50.02V48.13C227.07 46.78 223.38 44.44 220.5 41.11C217.62 37.78 216.18 33.37 216.18 27.88C216.18 22.39 217.395 17.755 219.825 13.975C222.255 10.195 225.54 7.36 229.68 5.47C233.91 3.48999 238.725 2.49999 244.125 2.49999H258.84V16.54H247.23C243.18 16.54 239.805 17.62 237.105 19.78C234.495 21.94 233.19 25.135 233.19 29.365C233.19 32.335 233.82 34.765 235.08 36.655C236.43 38.545 238.14 39.94 240.21 40.84C242.37 41.74 244.71 42.19 247.23 42.19H260.325V30.04H277.335V42.19H289.755V56.23H277.335V97H243.585ZM246.69 82.96H260.325V56.23H246.69C242.73 56.23 239.4 57.355 236.7 59.605C234 61.855 232.65 65.185 232.65 69.595C232.65 74.095 234.045 77.47 236.835 79.72C239.715 81.88 243 82.96 246.69 82.96ZM13.054 197L3.21 122.1H17.227L24.503 187.156H26.429L35.845 122.1H60.241L69.657 187.156H71.583L78.859 122.1H92.876L83.032 197H58.636L49.006 130.446H47.08L37.45 197H13.054ZM127.178 198.498C121.899 198.498 117.227 197.392 113.161 195.181C109.166 192.898 106.028 189.724 103.745 185.658C101.534 181.521 100.428 176.67 100.428 171.106V169.822C100.428 164.258 101.534 159.443 103.745 155.377C105.956 151.24 109.059 148.065 113.054 145.854C117.049 143.571 121.685 142.43 126.964 142.43C132.171 142.43 136.701 143.607 140.553 145.961C144.405 148.244 147.401 151.454 149.541 155.591C151.681 159.657 152.751 164.401 152.751 169.822V174.423H114.124C114.267 178.061 115.622 181.021 118.19 183.304C120.758 185.587 123.897 186.728 127.606 186.728C131.387 186.728 134.169 185.908 135.952 184.267C137.735 182.626 139.091 180.807 140.018 178.81L151.039 184.588C150.04 186.443 148.578 188.476 146.652 190.687C144.797 192.827 142.301 194.682 139.162 196.251C136.023 197.749 132.029 198.498 127.178 198.498ZM114.231 164.365H139.055C138.77 161.298 137.521 158.837 135.31 156.982C133.17 155.127 130.352 154.2 126.857 154.2C123.219 154.2 120.33 155.127 118.19 156.982C116.05 158.837 114.73 161.298 114.231 164.365ZM196.637 198.498C191.857 198.498 188.184 197.678 185.616 196.037C183.048 194.396 181.157 192.577 179.945 190.58H178.019V197H164.751V122.1H178.233V150.027H180.159C180.943 148.743 181.978 147.53 183.262 146.389C184.617 145.248 186.365 144.32 188.505 143.607C190.716 142.822 193.427 142.43 196.637 142.43C200.917 142.43 204.876 143.5 208.514 145.64C212.152 147.709 215.076 150.776 217.288 154.842C219.499 158.908 220.605 163.83 220.605 169.608V171.32C220.605 177.098 219.499 182.02 217.288 186.086C215.076 190.152 212.152 193.255 208.514 195.395C204.876 197.464 200.917 198.498 196.637 198.498ZM192.571 186.728C196.708 186.728 200.168 185.408 202.95 182.769C205.732 180.058 207.123 176.135 207.123 170.999V169.929C207.123 164.793 205.732 160.905 202.95 158.266C200.239 155.555 196.779 154.2 192.571 154.2C188.433 154.2 184.974 155.555 182.192 158.266C179.41 160.905 178.019 164.793 178.019 169.929V170.999C178.019 176.135 179.41 180.058 182.192 182.769C184.974 185.408 188.433 186.728 192.571 186.728ZM264.87 198.498C260.091 198.498 256.417 197.678 253.849 196.037C251.281 194.396 249.391 192.577 248.178 190.58H246.252V197H232.984V122.1H246.466V150.027H248.392C249.177 148.743 250.211 147.53 251.495 146.389C252.85 145.248 254.598 144.32 256.738 143.607C258.949 142.822 261.66 142.43 264.87 142.43C269.15 142.43 273.109 143.5 276.747 145.64C280.385 147.709 283.31 150.776 285.521 154.842C287.732 158.908 288.838 163.83 288.838 169.608V171.32C288.838 177.098 287.732 182.02 285.521 186.086C283.31 190.152 280.385 193.255 276.747 195.395C273.109 197.464 269.15 198.498 264.87 198.498ZM260.804 186.728C264.941 186.728 268.401 185.408 271.183 182.769C273.965 180.058 275.356 176.135 275.356 170.999V169.929C275.356 164.793 273.965 160.905 271.183 158.266C268.472 155.555 265.013 154.2 260.804 154.2C256.667 154.2 253.207 155.555 250.425 158.266C247.643 160.905 246.252 164.793 246.252 169.929V170.999C246.252 176.135 247.643 180.058 250.425 182.769C253.207 185.408 256.667 186.728 260.804 186.728Z" fill="#292929"/>
</g>
<defs>
<clipPath id="clip0_1_2">
<rect width="294" height="210" fill="white"/>
</clipPath>
</defs>
</svg>
