<svg width="240" height="240" viewBox="0 0 240 240" fill="none" xmlns="http://www.w3.org/2000/svg">
<path fill-rule="evenodd" clip-rule="evenodd" d="M120 240C186.274 240 240 186.274 240 120C240 53.7258 186.274 0 120 0C53.7258 0 0 53.7258 0 120C0 186.274 53.7258 240 120 240ZM17.9289 112.527L10.8579 119.598L17.9289 126.669L57.5269 166.267C61.4322 170.172 67.7638 170.172 71.669 166.267C75.5743 162.361 75.5743 156.03 71.669 152.125L39.1421 119.598L71.669 87.0707C75.5743 83.1655 75.5743 76.8339 71.669 72.9286C67.7638 69.0234 61.4322 69.0234 57.5269 72.9286L17.9289 112.527ZM228.338 119.598L221.267 126.669L181.669 166.267C177.764 170.172 171.432 170.172 167.527 166.267C163.622 162.361 163.622 156.03 167.527 152.125L200.054 119.598L167.527 87.0707C163.622 83.1655 163.622 76.8339 167.527 72.9286C171.432 69.0234 177.764 69.0234 181.669 72.9286L221.267 112.527L228.338 119.598ZM152.373 83.9285C155.134 79.1456 153.496 73.0297 148.713 70.2683C143.93 67.5069 137.814 69.1456 135.052 73.9285L87.6273 156.071C84.8659 160.854 86.5046 166.97 91.2875 169.732C96.0705 172.493 102.186 170.854 104.948 166.071L152.373 83.9285Z" fill="#282828"/>
</svg>
